HIERARCHY
ROOT Hips
{
	OFFSET 0.000000 0.000000 0.000000
	CHANNELS 6 Xposition Yposition Zposition Zrotation Yrotation Xrotation 
	JOINT LeftUpLeg_virtual
	{
		OFFSET 0.000000 0.000000 0.000000
		CHANNELS 3 Zrotation Yrotation Xrotation
		JOINT LeftUpLeg
		{
			OFFSET 10.205400 -3.823500 0.155100
			CHANNELS 3 Zrotation Yrotation Xrotation
			JOINT LeftLeg
			{
				OFFSET 0.708757 -12.982077 0.567790
				CHANNELS 3 Zrotation Yrotation Xrotation
				JOINT LeftFoot
				{
					OFFSET -0.708756 -10.717838 -2.184338
					CHANNELS 3 Zrotation Yrotation Xrotation
					JOINT LeftToeBase
					{
						OFFSET 0.108149 -7.191104 7.560241
						CHANNELS 3 Zrotation Yrotation Xrotation
						End Site
						{
							OFFSET 0.000000 0.000000 0.000000
						}
					}
				}
			}
		}
	}
	JOINT RightUpLeg_virtual
	{
		OFFSET 0.000000 0.000000 0.000000
		CHANNELS 3 Zrotation Yrotation Xrotation
		JOINT RightUpLeg
		{
			OFFSET -10.205400 -3.823500 0.005500
			CHANNELS 3 Zrotation Yrotation Xrotation
			JOINT RightLeg
			{
				OFFSET -0.708756 -12.982134 0.610632
				CHANNELS 3 Zrotation Yrotation Xrotation
				JOINT RightFoot
				{
					OFFSET 0.708754 -10.717769 -1.945823
					CHANNELS 3 Zrotation Yrotation Xrotation
					JOINT RightToeBase
					{
						OFFSET -0.108140 -7.191069 7.372968
						CHANNELS 3 Zrotation Yrotation Xrotation
						End Site
						{
							OFFSET 0.000000 0.000000 0.000000
						}
					}
				}
			}
		}
	}
	JOINT Spine_virtual
	{
		OFFSET 0.000000 0.000000 0.000000
		CHANNELS 3 Zrotation Yrotation Xrotation
		JOINT Spine
		{
			OFFSET 0.000000 6.876099 0.125700
			CHANNELS 3 Zrotation Yrotation Xrotation
			JOINT Spine1
			{
				OFFSET 0.000000 8.022060 0.146608
				CHANNELS 3 Zrotation Yrotation Xrotation
				JOINT Spine2
				{
					OFFSET 0.000000 9.168068 0.167552
					CHANNELS 3 Zrotation Yrotation Xrotation
					JOINT Neck_virtual
					{
						OFFSET 0.000000 0.000000 0.000000
						CHANNELS 3 Zrotation Yrotation Xrotation
						JOINT Neck
						{
							OFFSET 0.000000 10.314075 0.188496
							CHANNELS 3 Zrotation Yrotation Xrotation
							JOINT Head
							{
								OFFSET 0.000000 7.643700 -2.377400
								CHANNELS 3 Zrotation Yrotation Xrotation
								End Site
								{
									OFFSET 0.000000 0.000000 0.000000
								}
							}
						}
					}
					JOINT LeftShoulder_virtual
					{
						OFFSET 0.000000 0.000000 0.000000
						CHANNELS 3 Zrotation Yrotation Xrotation
						JOINT LeftShoulder
						{
							OFFSET 4.392200 8.824978 0.174984
							CHANNELS 3 Zrotation Yrotation Xrotation
							JOINT LeftArm
							{
								OFFSET 8.771219 -2.981674 -0.026999
								CHANNELS 3 Zrotation Yrotation Xrotation
								JOINT LeftForeArm
								{
									OFFSET 8.512804 0.000000 -0.000000
									CHANNELS 3 Zrotation Yrotation Xrotation
									JOINT LeftHand
									{
										OFFSET 18.484802 0.000000 -0.000000
										CHANNELS 3 Zrotation Yrotation Xrotation
										End Site
										{
											OFFSET 0.000000 0.000000 0.000000
										}
									}
								}
							}
						}
					}
					JOINT RightShoulder_virtual
					{
						OFFSET 0.000000 0.000000 0.000000
						CHANNELS 3 Zrotation Yrotation Xrotation
						JOINT RightShoulder
						{
							OFFSET -4.392200 8.824993 0.141379
							CHANNELS 3 Zrotation Yrotation Xrotation
							JOINT RightArm
							{
								OFFSET -8.771282 -2.981682 -0.094208
								CHANNELS 3 Zrotation Yrotation Xrotation
								JOINT RightForeArm
								{
									OFFSET -8.494598 0.000000 0.000000
									CHANNELS 3 Zrotation Yrotation Xrotation
									JOINT RightHand
									{
										OFFSET -18.483803 0.000000 0.000001
										CHANNELS 3 Zrotation Yrotation Xrotation
										End Site
										{
											OFFSET 0.000000 0.000000 0.000000
										}
									}
								}
							}
						}
					}
				}
			}
		}
	}
}
MOTION
Frames: 7
Frame Time: 0.033333
3.525135 36.524799 7.815912 179.556698 0.924578 -179.824415 -3.318955 -2.838675 9.223626 -3.100069 -5.017463 -14.841678 13.755328 8.511968 19.304724 -0.968381 3.171543 8.446424 0.000000 0.000000 0.000000 2.598421 -1.108344 7.956849 -0.455829 0.236977 -7.329485 -5.129928 4.152468 9.299640 5.067276 6.736614 7.363274 0.000000 0.000000 0.000000 1.260309 1.351167 -4.915799 -4.437055 2.915700 -4.093371 -0.422428 -2.535493 3.465883 0.018884 0.078121 0.029151 -1.105736 -0.245816 6.708712 1.232141 -6.285291 3.166952 0.000000 0.000000 0.000000 0.539570 0.645932 3.963100 4.512331 1.764143 -4.621373 -10.314543 21.086934 -35.763055 -1.157777 -39.720661 -6.161701 0.000000 0.000000 0.000000 -3.380353 1.443547 3.613927 4.664744 -15.164306 -8.373417 18.943970 -27.150871 -35.752909 -0.183428 36.792600 -4.906868 0.000000 0.000000 0.000000 
3.534389 36.525066 7.781384 179.305785 1.143217 -179.681349 -3.496782 -2.876214 9.385712 -3.136772 -4.942560 -14.577680 13.842453 8.473002 19.567860 -0.922047 3.242301 8.710879 0.000000 0.000000 0.000000 2.713307 -1.208692 7.811708 -0.336151 0.673741 -7.507439 -4.933379 4.578882 8.944892 5.339362 7.022211 6.929198 0.000000 0.000000 0.000000 1.081182 1.405860 -5.033916 -4.539464 2.954088 -4.191060 -0.448475 -2.508511 3.417139 0.018304 0.115355 0.003851 -1.072755 -0.453288 6.727818 1.205856 -6.309024 3.158347 0.000000 0.000000 0.000000 0.637283 0.544438 3.974740 4.518460 1.885250 -4.551813 -10.358132 21.130223 -35.735963 -1.234340 -39.745701 -6.087528 0.000000 0.000000 0.000000 -3.324572 1.446607 3.627942 4.647893 -15.158280 -8.427557 18.785797 -27.212596 -35.751006 -0.059553 36.774299 -4.789640 0.000000 0.000000 0.000000 
3.534353 36.530098 7.731158 179.400874 1.140985 -179.671678 -3.437870 -2.869385 9.389056 -3.123064 -4.911271 -14.515124 13.850585 8.459114 19.581888 -0.959821 3.231749 8.709671 0.000000 0.000000 0.000000 2.782397 -1.160763 7.848829 -0.287178 0.711532 -7.396548 -4.930250 4.544871 8.865372 5.323650 7.006572 6.947186 0.000000 0.000000 0.000000 1.151625 1.357604 -5.051806 -4.509229 2.953791 -4.213858 -0.447407 -2.496905 3.405592 0.061691 0.104402 0.039349 -1.141953 -0.139471 6.671942 1.185064 -6.304189 3.148252 0.000000 0.000000 0.000000 0.499474 0.607691 3.944953 4.546654 1.889438 -4.615946 -10.288571 21.126943 -35.720940 -1.170348 -39.767178 -6.128275 0.000000 0.000000 0.000000 -3.423217 1.451449 3.643169 4.686993 -15.160901 -8.417033 18.886861 -27.173230 -35.889130 -0.112244 36.806803 -4.852762 0.000000 0.000000 0.000000 
3.538877 36.533009 7.680424 179.373335 1.108892 -179.657922 -3.458858 -2.913448 9.403979 -3.106197 -4.893784 -14.483833 13.882821 8.432977 19.648197 -0.980604 3.241529 8.665219 0.000000 0.000000 0.000000 2.773618 -1.157925 7.879918 -0.299396 0.733089 -7.306885 -4.949855 4.513544 8.827458 5.312118 6.992518 6.927533 0.000000 0.000000 0.000000 1.138749 1.342279 -5.097246 -4.530721 2.952426 -4.263291 -0.453996 -2.515409 3.439356 0.033330 0.106941 0.017776 -1.050649 -0.312816 6.717469 1.279956 -6.207150 3.210426 0.000000 0.000000 0.000000 0.575297 0.555028 3.930709 4.534460 1.972251 -4.582628 -10.321953 21.175460 -35.713457 -1.176810 -39.846576 -6.144988 0.000000 0.000000 0.000000 -3.358957 1.403998 3.634606 4.693895 -15.151024 -8.503609 18.844804 -27.145168 -35.864333 -0.037898 36.810714 -4.750850 0.000000 0.000000 0.000000 
3.542279 36.533115 7.631994 179.270158 1.108069 -179.654384 -3.562793 -2.918248 9.449206 -3.076524 -4.871353 -14.472078 13.816388 8.489679 19.686101 -1.030196 3.241322 8.634904 0.000000 0.000000 0.000000 2.682941 -1.150674 7.919201 -0.348119 0.747231 -7.226250 -4.991927 4.495051 8.799181 5.289690 6.969018 6.864399 0.000000 0.000000 0.000000 0.972933 1.393535 -5.108393 -4.536626 2.942974 -4.292716 -0.382147 -2.551741 3.422537 0.094489 0.106777 0.024613 -1.166482 -0.402279 6.738517 1.077779 -6.360067 3.269019 0.000000 0.000000 0.000000 0.587738 0.520493 3.952848 4.456283 2.043917 -4.633770 -10.444064 21.248748 -35.715291 -1.248375 -39.919105 -6.072848 0.000000 0.000000 0.000000 -3.368417 1.371740 3.609374 4.630221 -15.156108 -8.445809 18.905124 -27.070575 -36.066981 -0.097490 36.803757 -4.851170 0.000000 0.000000 0.000000 
3.534998 36.532352 7.588470 179.372857 1.228906 -179.517753 -3.480284 -2.895581 9.451629 -3.060250 -4.795794 -14.511224 13.836368 8.549217 19.737906 -1.035791 3.260040 8.545271 0.000000 0.000000 0.000000 2.762702 -1.001840 7.853972 -0.294831 0.779773 -7.242170 -4.965981 4.495032 8.786438 5.303524 6.975747 6.863593 0.000000 0.000000 0.000000 1.104047 1.340945 -5.194645 -4.533998 2.968741 -4.350574 -0.426793 -2.527924 3.394199 0.079844 0.113305 -0.035072 -1.092460 -0.152547 6.728249 1.223721 -6.192247 3.259266 0.000000 0.000000 0.000000 0.525686 0.552774 3.970784 4.499540 2.152579 -4.619867 -10.381495 21.391930 -35.722989 -1.154916 -39.883063 -6.145044 0.000000 0.000000 0.000000 -3.404433 1.410058 3.683013 4.795997 -15.063772 -8.434590 18.840411 -27.040381 -35.960338 -0.159010 36.793409 -4.932011 0.000000 0.000000 0.000000 
3.533858 36.529011 7.548200 179.294460 1.215602 -179.586929 -3.558409 -2.923082 9.499034 -3.037793 -4.782016 -14.479017 13.813137 8.599504 19.837178 -1.082777 3.243573 8.473197 0.000000 0.000000 0.000000 2.690112 -1.105277 7.920789 -0.331999 0.800906 -7.145296 -4.993143 4.478429 8.821704 5.303020 6.969462 6.796212 0.000000 0.000000 0.000000 1.009869 1.366043 -5.159693 -4.589960 2.966095 -4.376490 -0.419214 -2.554608 3.427325 0.084830 0.117723 0.011835 -1.039322 -0.434154 6.752111 1.288122 -6.108187 3.387725 0.000000 0.000000 0.000000 0.592448 0.500513 3.969504 4.444058 2.244272 -4.719292 -10.459093 21.439991 -35.743029 -1.239691 -39.905476 -6.100345 0.000000 0.000000 0.000000 -3.375298 1.319602 3.653696 4.797588 -15.037724 -8.523188 18.814057 -26.914026 -35.909344 -0.145239 36.825078 -4.956989 0.000000 0.000000 0.000000 
